<svg viewBox="0 0 26 26"><g fill="none"><ellipse cx="12.763" cy="12.783" fill="#FAFAFA" rx="12.691" ry="12.711"/><path fill="#212121" d="M25.454 12.711c0 5.561-3.678 10.328-8.653 11.989-1.298.433-2.596.65-4.038.65C5.768 25.35.072 19.717 0 12.711v.072c0 7.006 5.697 12.711 12.691 12.711 1.442 0 2.74-.217 4.038-.65 5.048-1.661 8.653-6.428 8.653-12.061l.072-.072z" opacity=".1"/><path fill="#fff" d="M16.801.722C15.503.289 14.133 0 12.763 0 5.696 0 0 5.706 0 12.783v.072C.072 5.849 5.769.144 12.763.144c1.442 0 2.74.217 4.038.65a12.624 12.624 0 0 1 8.653 11.989v-.072A12.624 12.624 0 0 0 16.801.722z" opacity=".4"/><g><ellipse cx="12.763" cy="12.783" fill="#1A73E8" rx="12.691" ry="12.711"/><path fill="#185ABC" d="M17.378 18.272H8.725c-1.226 0-2.307-.939-2.307-2.167v.722c0 1.228 1.082 2.311 2.307 2.311h8.653c1.226 0 2.307-1.083 2.307-2.311v-.722c0 1.228-1.082 2.167-2.307 2.167zM6.418 12.061V11.05L4.832 8.378c-.072-.144-.144-.289-.144-.433v1.156c0 .072.072.217.144.289l1.586 2.672z"/><path fill="#fff" d="M17.378 7.583H5.192c-.505 0-.721.433-.433.867l1.586 2.744v4.911c0 1.228.937 2.311 2.163 2.311h8.797c1.226 0 2.307-1.083 2.307-2.311V9.894c.072-1.3-1.01-2.311-2.235-2.311z"/><path fill="#8AB4F8" d="M17.234 11.05H8.869c-.361 0-.721-.217-.721-.578s.361-.578.721-.578h8.365c.361 0 .721.217.721.578s-.361.578-.721.578zm0 2.311H8.869c-.361 0-.721-.217-.721-.578s.361-.578.721-.578h8.365c.361 0 .721.217.721.578s-.361.578-.721.578zm-2.307 2.311H8.87c-.361 0-.721-.217-.721-.578s.361-.578.721-.578h6.057c.361 0 .721.217.721.578s-.361.578-.721.578z"/></g></g></svg>